<svg width="25" height="19" viewBox="0 0 25 19" fill="none" xmlns="http://www.w3.org/2000/svg">
<path d="M22.6406 0H2.85938C1.69772 0 0.75 0.946687 0.75 2.10937V16.1719C0.75 17.3306 1.6935 18.2812 2.85938 18.2812H22.6406C23.7994 18.2812 24.75 17.3377 24.75 16.1719V2.10937C24.75 0.950625 23.8065 0 22.6406 0ZM22.3493 1.40625L12.7947 10.9609L3.15745 1.40625H22.3493ZM2.15625 15.8807V2.39386L8.9287 9.10823L2.15625 15.8807ZM3.15061 16.875L9.92733 10.0983L12.3019 12.4524C12.5768 12.725 13.0203 12.7241 13.2941 12.4503L15.6094 10.135L22.3494 16.875H3.15061ZM23.3438 15.8806L16.6037 9.14062L23.3438 2.40056V15.8806Z" fill="#FAA928"/>
</svg>
