<svg width="23" height="24" viewBox="0 0 23 24" fill="none" xmlns="http://www.w3.org/2000/svg">
<path d="M11.375 24C11.2449 24.0007 11.1159 23.9774 10.9955 23.9314C10.875 23.8854 10.7655 23.8176 10.6731 23.7319L3.68412 17.2617C2.67507 16.3244 1.87426 15.2098 1.3278 13.9819C0.781331 12.7541 0.5 11.4373 0.5 10.1074C0.5 8.77751 0.781331 7.46073 1.3278 6.2329C1.87426 5.00507 2.67507 3.89043 3.68412 2.95316C5.73241 1.06105 8.4957 0 11.375 0C14.2543 0 17.0176 1.06105 19.0659 2.95316C20.0749 3.89043 20.8757 5.00507 21.4222 6.2329C21.9687 7.46073 22.25 8.77751 22.25 10.1074C22.25 11.4373 21.9687 12.7541 21.4222 13.9819C20.8757 15.2098 20.0749 16.3244 19.0659 17.2617L12.0769 23.7319C11.9845 23.8176 11.875 23.8854 11.7545 23.9314C11.6341 23.9774 11.5051 24.0007 11.375 24ZM11.375 1.81624C9.0156 1.81083 6.75052 2.68194 5.07797 4.23797V4.23797C4.25423 5.00338 3.60051 5.91356 3.15441 6.91612C2.70832 7.91867 2.47867 8.99382 2.47867 10.0797C2.47867 11.1656 2.70832 12.2407 3.15441 13.2433C3.60051 14.2458 4.25423 15.156 5.07797 15.9214L11.375 21.7724L17.672 15.9214C18.4958 15.156 19.1495 14.2458 19.5956 13.2433C20.0417 12.2407 20.2713 11.1656 20.2713 10.0797C20.2713 8.99382 20.0417 7.91867 19.5956 6.91612C19.1495 5.91356 18.4958 5.00338 17.672 4.23797C15.9995 2.68194 13.7344 1.81083 11.375 1.81624V1.81624Z" fill="#FAA928"/>
<path d="M11.3751 14.7561C10.3975 14.7561 9.4419 14.485 8.62907 13.9772C7.81624 13.4694 7.18272 12.7476 6.80862 11.9032C6.43451 11.0587 6.33663 10.1295 6.52735 9.23304C6.71806 8.33656 7.18881 7.5131 7.88007 6.86678C8.57132 6.22046 9.45203 5.78031 10.4108 5.60199C11.3696 5.42367 12.3634 5.51519 13.2666 5.86497C14.1698 6.21476 14.9417 6.8071 15.4848 7.5671C16.0279 8.32709 16.3178 9.2206 16.3178 10.1346C16.3178 11.3603 15.7971 12.5358 14.8701 13.4025C13.9432 14.2692 12.686 14.7561 11.3751 14.7561ZM11.3751 7.36177C10.7886 7.36177 10.2152 7.52439 9.72748 7.82908C9.23979 8.13377 8.85967 8.56683 8.63521 9.07351C8.41075 9.58018 8.35202 10.1377 8.46645 10.6756C8.58088 11.2135 8.86333 11.7076 9.27808 12.0954C9.69283 12.4831 10.2213 12.7472 10.7965 12.8542C11.3718 12.9612 11.9681 12.9063 12.51 12.6964C13.0519 12.4866 13.5151 12.1312 13.8409 11.6752C14.1668 11.2192 14.3407 10.6831 14.3407 10.1346C14.3407 9.39923 14.0283 8.69394 13.4721 8.17392C12.916 7.65391 12.1616 7.36177 11.3751 7.36177V7.36177Z" fill="#FAA928"/>
</svg>
