<svg width="20" height="19" viewBox="0 0 20 19" fill="none" xmlns="http://www.w3.org/2000/svg">
<g clip-path="url(#clip0_1_147)">
<path d="M16.5034 0H3.24658C1.73224 0 0.5 1.23224 0.5 2.74658V16.0034C0.5 17.5178 1.73224 18.75 3.24658 18.75H16.5034C18.0178 18.75 19.25 17.5178 19.25 16.0034V2.74658C19.25 1.23224 18.0178 0 16.5034 0ZM9.91162 14.2822C7.1855 14.2822 4.96777 12.0645 4.96777 9.33838C4.96777 6.61225 7.1855 4.39453 9.91162 4.39453C12.6377 4.39453 14.8555 6.61225 14.8555 9.33838C14.8555 12.0645 12.6377 14.2822 9.91162 14.2822ZM15.4048 5.49316C14.4961 5.49316 13.7568 4.75388 13.7568 3.84521C13.7568 2.93655 14.4961 2.19727 15.4048 2.19727C16.3134 2.19727 17.0527 2.93655 17.0527 3.84521C17.0527 4.75388 16.3134 5.49316 15.4048 5.49316Z" fill="white"/>
<path d="M15.4048 3.2959C15.1017 3.2959 14.8555 3.54209 14.8555 3.84521C14.8555 4.14834 15.1017 4.39453 15.4048 4.39453C15.7079 4.39453 15.9541 4.14834 15.9541 3.84521C15.9541 3.54209 15.7079 3.2959 15.4048 3.2959Z" fill="white"/>
<path d="M9.91162 5.49316C7.7916 5.49316 6.06641 7.21836 6.06641 9.33838C6.06641 11.4584 7.7916 13.1836 9.91162 13.1836C12.0316 13.1836 13.7568 11.4584 13.7568 9.33838C13.7568 7.21836 12.0316 5.49316 9.91162 5.49316Z" fill="white"/>
</g>
<defs>
<clipPath id="clip0_1_147">
<rect width="18.75" height="18.75" fill="white" transform="translate(0.5)"/>
</clipPath>
</defs>
</svg>
