<svg width="76" height="605" viewBox="0 0 76 605" fill="none" xmlns="http://www.w3.org/2000/svg">
<path d="M20.54 35.25L22.1905 33.7208L22.1905 33.7208L20.54 35.25ZM15.5 0.689997L15.5 -1.56L13.25 -1.56L13.25 0.689997L15.5 0.689997ZM74.7 0.689999L76.95 0.69L76.95 -1.56L74.7 -1.56L74.7 0.689999ZM74.7 35.25L74.7 37.5L76.95 37.5L76.95 35.25L74.7 35.25ZM64.06 35.25L61.81 35.25L61.81 37.5L64.06 37.5L64.06 35.25ZM64.06 11.65L66.31 11.65L66.31 9.4L64.06 9.4L64.06 11.65ZM51.9 11.65L51.9 9.4L49.65 9.4L49.65 11.65L51.9 11.65ZM46.94 35.57L45.3363 33.9918L45.3237 34.0046L45.3113 34.0176L46.94 35.57ZM38.46 28.05L37.0245 26.3175L37.0186 26.3223L37.0128 26.3272L38.46 28.05ZM41.26 11.65L43.51 11.65L43.51 9.4L41.26 9.4L41.26 11.65ZM26.14 11.65L26.14 9.4L23.89 9.4L23.89 11.65L26.14 11.65ZM28.38 27.57L29.9418 25.9503L29.9418 25.9503L28.38 27.57ZM33.66 38.44C28.8373 38.44 25.084 36.8439 22.1905 33.7208L18.8895 36.7791C22.716 40.9094 27.7094 42.94 33.66 42.94L33.66 38.44ZM22.1905 33.7208C19.2824 30.582 17.75 26.4425 17.75 21.09L13.25 21.09C13.25 27.3642 15.0776 32.6647 18.8895 36.7791L22.1905 33.7208ZM17.75 21.09L17.75 0.689997L13.25 0.689997L13.25 21.09L17.75 21.09ZM15.5 2.94L74.7 2.94L74.7 -1.56L15.5 -1.56L15.5 2.94ZM72.45 0.689999L72.45 35.25L76.95 35.25L76.95 0.69L72.45 0.689999ZM74.7 33L64.06 33L64.06 37.5L74.7 37.5L74.7 33ZM66.31 35.25L66.31 11.65L61.81 11.65L61.81 35.25L66.31 35.25ZM64.06 9.4L51.9 9.4L51.9 13.9L64.06 13.9L64.06 9.4ZM49.65 11.65L49.65 21.09L54.15 21.09L54.15 11.65L49.65 11.65ZM49.65 21.09C49.65 26.9966 48.105 31.1785 45.3363 33.9918L48.5437 37.1482C52.3883 33.2415 54.15 27.7701 54.15 21.09L49.65 21.09ZM45.3113 34.0176C42.5617 36.9025 38.7695 38.44 33.66 38.44L33.66 42.94C39.7505 42.94 44.8116 41.0642 48.5687 37.1224L45.3113 34.0176ZM33.66 31.98C36.0149 31.98 38.1381 31.2589 39.9072 29.7728L37.0128 26.3272C36.1152 27.0811 35.0384 27.48 33.66 27.48L33.66 31.98ZM39.8955 29.7825C42.4055 27.7028 43.51 24.6947 43.51 21.17L39.01 21.17C39.01 23.7253 38.2478 25.3038 37.0245 26.3175L39.8955 29.7825ZM43.51 21.17L43.51 11.65L39.01 11.65L39.01 21.17L43.51 21.17ZM41.26 9.4L26.14 9.4L26.14 13.9L41.26 13.9L41.26 9.4ZM23.89 11.65L23.89 21.17L28.39 21.17L28.39 11.65L23.89 11.65ZM23.89 21.17C23.89 24.3792 24.7441 27.1896 26.8182 29.1896L29.9418 25.9503C29.0292 25.0704 28.39 23.6141 28.39 21.17L23.89 21.17ZM26.8182 29.1896C28.7199 31.0234 31.0356 31.98 33.66 31.98L33.66 27.48C32.2311 27.48 31.0268 26.9966 29.9418 25.9503L26.8182 29.1896ZM20.94 85.6187L19.3678 87.2283L19.3678 87.2283L20.94 85.6187ZM20.86 52.0187L19.2878 50.4092L19.2784 50.4184L19.269 50.4278L20.86 52.0187ZM54.3 51.9387L55.8628 50.3201L55.8625 50.3198L54.3 51.9387ZM54.38 85.6188L55.9522 87.2283L55.9522 87.2283L54.38 85.6188ZM47.18 78.1787L45.6936 76.4896L45.6851 76.4971L45.6767 76.5046L47.18 78.1787ZM47.18 59.4587L48.6852 57.7863L48.6833 57.7846L47.18 59.4587ZM27.98 59.4587L26.4767 57.7846L26.4681 57.7924L26.4596 57.8002L27.98 59.4587ZM28.06 78.0987L29.5819 76.4416L29.5819 76.4416L28.06 78.0987ZM37.58 90.0887C31.6511 90.0887 26.6716 88.0718 22.5122 84.0092L19.3678 87.2283C24.3818 92.1257 30.4955 94.5887 37.58 94.5887L37.58 90.0887ZM22.5122 84.0092C18.3817 79.9748 16.31 74.9654 16.31 68.8187L11.81 68.8187C11.81 76.1121 14.3249 82.3027 19.3678 87.2283L22.5122 84.0092ZM16.31 68.8187C16.31 62.7223 18.358 57.7027 22.451 53.6097L19.269 50.4278C14.2953 55.4015 11.81 61.5819 11.81 68.8187L16.31 68.8187ZM22.4322 53.6283C26.5878 49.5694 31.5924 47.5487 37.58 47.5487L37.58 43.0487C30.4476 43.0487 24.3056 45.5081 19.2878 50.4092L22.4322 53.6283ZM37.58 47.5487C43.576 47.5487 48.5837 49.5488 52.7375 53.5577L55.8625 50.3198C50.843 45.4754 44.704 43.0487 37.58 43.0487L37.58 47.5487ZM52.7372 53.5574C56.914 57.5902 59.01 62.6216 59.01 68.8188L63.51 68.8188C63.51 61.4693 60.966 55.2473 55.8628 50.3201L52.7372 53.5574ZM59.01 68.8188C59.01 74.9654 56.9383 79.9748 52.8078 84.0092L55.9522 87.2283C60.995 82.3027 63.51 76.1121 63.51 68.8188L59.01 68.8188ZM52.8078 84.0092C48.656 88.0644 43.6264 90.0887 37.58 90.0887L37.58 94.5887C44.7603 94.5887 50.9306 92.1331 55.9522 87.2283L52.8078 84.0092ZM37.58 83.9488C41.8745 83.9488 45.6233 82.6006 48.6833 79.8529L45.6767 76.5046C43.5101 78.4502 40.8588 79.4488 37.58 79.4488L37.58 83.9488ZM48.6664 79.8679C51.8685 77.05 53.43 73.2889 53.43 68.8188L48.93 68.8187C48.93 72.1352 47.8248 74.6141 45.6936 76.4896L48.6664 79.8679ZM53.43 68.8188C53.43 64.3914 51.8622 60.6457 48.6852 57.7863L45.6748 61.1312C47.8311 63.0718 48.93 65.5661 48.93 68.8187L53.43 68.8188ZM48.6833 57.7846C45.6233 55.0369 41.8745 53.6887 37.58 53.6887L37.58 58.1887C40.8588 58.1887 43.5101 59.1873 45.6767 61.1329L48.6833 57.7846ZM37.58 53.6887C33.2855 53.6887 29.5367 55.0369 26.4767 57.7846L29.4833 61.1329C31.6499 59.1873 34.3012 58.1887 37.58 58.1887L37.58 53.6887ZM26.4596 57.8002C23.3758 60.627 21.89 64.3794 21.89 68.8187L26.39 68.8187C26.39 65.4715 27.4642 62.9838 29.5004 61.1173L26.4596 57.8002ZM21.89 68.8187C21.89 73.1878 23.4268 76.8987 26.5381 79.7559L29.5819 76.4416C27.4665 74.4988 26.39 72.023 26.39 68.8187L21.89 68.8187ZM26.5381 79.7559C29.5898 82.5585 33.3153 83.9488 37.58 83.9488L37.58 79.4488C34.378 79.4488 31.7569 78.439 29.5819 76.4416L26.5381 79.7559ZM15.5 140.471L13.25 140.471L13.25 143.819L16.3499 142.554L15.5 140.471ZM15.5 128.631L14.7211 126.52L13.25 127.063L13.25 128.631L15.5 128.631ZM45.42 117.591L46.1989 119.702L51.9197 117.591L46.1989 115.48L45.42 117.591ZM15.5 106.551L13.25 106.551L13.25 108.119L14.7211 108.662L15.5 106.551ZM15.5 94.7106L16.3499 92.6273L13.25 91.3627L13.25 94.7106L15.5 94.7106ZM59.82 112.791L62.07 112.791L62.07 111.278L60.6699 110.707L59.82 112.791ZM59.82 122.391L60.6699 124.474L62.07 123.903L62.07 122.391L59.82 122.391ZM17.75 140.471L17.75 128.631L13.25 128.631L13.25 140.471L17.75 140.471ZM16.2789 130.742L46.1989 119.702L44.6411 115.48L14.7211 126.52L16.2789 130.742ZM46.1989 115.48L16.2789 104.44L14.7211 108.662L44.6411 119.702L46.1989 115.48ZM17.75 106.551L17.75 94.7106L13.25 94.7106L13.25 106.551L17.75 106.551ZM14.6501 96.7939L58.9701 114.874L60.6699 110.707L16.3499 92.6273L14.6501 96.7939ZM57.57 112.791L57.57 122.391L62.07 122.391L62.07 112.791L57.57 112.791ZM58.9701 120.307L14.6501 138.387L16.3499 142.554L60.6699 124.474L58.9701 120.307ZM19.42 175.997L17.7825 177.54L17.7825 177.54L19.42 175.997ZM15.5 145.117L15.5 142.867L13.25 142.867L13.25 145.117L15.5 145.117ZM59.82 145.117L62.07 145.117L62.07 142.867L59.82 142.867L59.82 145.117ZM59.82 155.757L59.82 158.007L62.07 158.007L62.07 155.757L59.82 155.757ZM44.3 155.757L44.3 153.507L42.05 153.507L42.05 155.757L44.3 155.757ZM39.98 176.557L38.468 174.891L38.4581 174.9L39.98 176.557ZM33.18 168.477L34.5988 170.223L34.6218 170.204L34.6443 170.185L33.18 168.477ZM34.86 155.757L37.11 155.757L37.11 153.507L34.86 153.507L34.86 155.757ZM24.94 155.757L24.94 153.507L22.69 153.507L22.69 155.757L24.94 155.757ZM26.14 168.077L24.4115 169.517L24.4345 169.545L24.4583 169.572L26.14 168.077ZM29.9 177.907C26.0463 177.907 23.1815 176.708 21.0575 174.454L17.7825 177.54C20.8851 180.833 25.007 182.407 29.9 182.407L29.9 177.907ZM21.0575 174.454C18.8959 172.16 17.75 169.168 17.75 165.277L13.25 165.277C13.25 170.133 14.7174 174.287 17.7825 177.54L21.0575 174.454ZM17.75 165.277L17.75 145.117L13.25 145.117L13.25 165.277L17.75 165.277ZM15.5 147.367L59.82 147.367L59.82 142.867L15.5 142.867L15.5 147.367ZM57.57 145.117L57.57 155.757L62.07 155.757L62.07 145.117L57.57 145.117ZM59.82 153.507L44.3 153.507L44.3 158.007L59.82 158.007L59.82 153.507ZM42.05 155.757L42.05 165.277L46.55 165.277L46.55 155.757L42.05 155.757ZM42.05 165.277C42.05 169.727 40.7608 172.81 38.468 174.891L41.492 178.223C44.9591 175.077 46.55 170.641 46.55 165.277L42.05 165.277ZM38.4581 174.9C36.3248 176.859 33.5378 177.907 29.9 177.907L29.9 182.407C34.4755 182.407 38.4085 181.055 41.5019 178.214L38.4581 174.9ZM29.9 171.767C31.6363 171.767 33.2642 171.308 34.5988 170.223L31.7612 166.731C31.3891 167.033 30.8304 167.267 29.9 167.267L29.9 171.767ZM34.6443 170.185C36.4039 168.677 37.11 166.522 37.11 164.157L32.61 164.157C32.61 165.632 32.1961 166.357 31.7157 166.769L34.6443 170.185ZM37.11 164.157L37.11 155.757L32.61 155.757L32.61 164.157L37.11 164.157ZM34.86 153.507L24.94 153.507L24.94 158.007L34.86 158.007L34.86 153.507ZM22.69 155.757L22.69 164.157L27.19 164.157L27.19 155.757L22.69 155.757ZM22.69 164.157C22.69 166.165 23.179 168.038 24.4115 169.517L27.8685 166.636C27.501 166.196 27.19 165.455 27.19 164.157L22.69 164.157ZM24.4583 169.572C25.8539 171.142 27.8007 171.767 29.9 171.767L29.9 167.267C28.6926 167.267 28.1327 166.932 27.8217 166.582L24.4583 169.572ZM15.5 245.479L13.25 245.479L13.25 247.729L15.5 247.729L15.5 245.479ZM15.5 186.679L15.5 184.429L13.25 184.429L13.25 186.679L15.5 186.679ZM59.82 186.679L62.07 186.679L62.07 184.429L59.82 184.429L59.82 186.679ZM59.82 197.319L59.82 199.569L62.07 199.569L62.07 197.319L59.82 197.319ZM24.94 197.319L24.94 195.069L22.69 195.069L22.69 197.319L24.94 197.319ZM24.94 210.759L22.69 210.759L22.69 213.009L24.94 213.009L24.94 210.759ZM59.82 210.759L62.07 210.759L62.07 208.509L59.82 208.509L59.82 210.759ZM59.82 221.399L59.82 223.649L62.07 223.649L62.07 221.399L59.82 221.399ZM24.94 221.399L24.94 219.149L22.69 219.149L22.69 221.399L24.94 221.399ZM24.94 234.839L22.69 234.839L22.69 237.089L24.94 237.089L24.94 234.839ZM59.82 234.839L62.07 234.839L62.07 232.589L59.82 232.589L59.82 234.839ZM59.82 245.479L59.82 247.729L62.07 247.729L62.07 245.479L59.82 245.479ZM17.75 245.479L17.75 186.679L13.25 186.679L13.25 245.479L17.75 245.479ZM15.5 188.929L59.82 188.929L59.82 184.429L15.5 184.429L15.5 188.929ZM57.57 186.679L57.57 197.319L62.07 197.319L62.07 186.679L57.57 186.679ZM59.82 195.069L24.94 195.069L24.94 199.569L59.82 199.569L59.82 195.069ZM22.69 197.319L22.69 210.759L27.19 210.759L27.19 197.319L22.69 197.319ZM24.94 213.009L59.82 213.009L59.82 208.509L24.94 208.509L24.94 213.009ZM57.57 210.759L57.57 221.399L62.07 221.399L62.07 210.759L57.57 210.759ZM59.82 219.149L24.94 219.149L24.94 223.649L59.82 223.649L59.82 219.149ZM22.69 221.399L22.69 234.839L27.19 234.839L27.19 221.399L22.69 221.399ZM24.94 237.089L59.82 237.089L59.82 232.589L24.94 232.589L24.94 237.089ZM57.57 234.839L57.57 245.479L62.07 245.479L62.07 234.839L57.57 234.839ZM59.82 243.229L15.5 243.229L15.5 247.729L59.82 247.729L59.82 243.229ZM20.94 291.947L19.3678 293.556L19.3678 293.556L20.94 291.947ZM20.86 258.347L19.2878 256.737L19.2784 256.747L19.269 256.756L20.86 258.347ZM54.3 258.267L55.8628 256.648L55.8625 256.648L54.3 258.267ZM54.38 291.947L55.9522 293.556L55.9522 293.556L54.38 291.947ZM47.18 284.507L45.6936 282.818L45.6851 282.825L45.6767 282.833L47.18 284.507ZM47.18 265.787L48.6852 264.114L48.6833 264.113L47.18 265.787ZM27.98 265.787L26.4767 264.113L26.4681 264.12L26.4596 264.128L27.98 265.787ZM28.06 284.427L29.5819 282.77L29.5819 282.77L28.06 284.427ZM37.58 296.417C31.6511 296.417 26.6716 294.4 22.5122 290.337L19.3678 293.556C24.3817 298.454 30.4955 300.917 37.58 300.917L37.58 296.417ZM22.5122 290.337C18.3817 286.303 16.31 281.294 16.31 275.147L11.81 275.147C11.81 282.44 14.3249 288.631 19.3678 293.556L22.5122 290.337ZM16.31 275.147C16.31 269.05 18.358 264.031 22.451 259.938L19.269 256.756C14.2953 261.73 11.81 267.91 11.81 275.147L16.31 275.147ZM22.4322 259.956C26.5877 255.898 31.5924 253.877 37.58 253.877L37.58 249.377C30.4476 249.377 24.3056 251.836 19.2878 256.737L22.4322 259.956ZM37.58 253.877C43.576 253.877 48.5836 255.877 52.7375 259.886L55.8625 256.648C50.843 251.804 44.704 249.377 37.58 249.377L37.58 253.877ZM52.7372 259.886C56.914 263.918 59.01 268.95 59.01 275.147L63.51 275.147C63.51 267.797 60.966 261.575 55.8628 256.648L52.7372 259.886ZM59.01 275.147C59.01 281.294 56.9383 286.303 52.8078 290.337L55.9522 293.556C60.995 288.631 63.51 282.44 63.51 275.147L59.01 275.147ZM52.8078 290.337C48.656 294.393 43.6264 296.417 37.58 296.417L37.58 300.917C44.7603 300.917 50.9306 298.461 55.9522 293.556L52.8078 290.337ZM37.58 290.277C41.8745 290.277 45.6232 288.929 48.6833 286.181L45.6767 282.833C43.5101 284.778 40.8588 285.777 37.58 285.777L37.58 290.277ZM48.6664 286.196C51.8685 283.378 53.43 279.617 53.43 275.147L48.93 275.147C48.93 278.463 47.8248 280.942 45.6936 282.818L48.6664 286.196ZM53.43 275.147C53.43 270.72 51.8622 266.974 48.6852 264.114L45.6748 267.459C47.8311 269.4 48.93 271.894 48.93 275.147L53.43 275.147ZM48.6833 264.113C45.6232 261.365 41.8745 260.017 37.58 260.017L37.58 264.517C40.8588 264.517 43.5101 265.515 45.6767 267.461L48.6833 264.113ZM37.58 260.017C33.2855 260.017 29.5367 261.365 26.4767 264.113L29.4833 267.461C31.6499 265.515 34.3012 264.517 37.58 264.517L37.58 260.017ZM26.4596 264.128C23.3758 266.955 21.89 270.707 21.89 275.147L26.39 275.147C26.39 271.8 27.4642 269.312 29.5004 267.445L26.4596 264.128ZM21.89 275.147C21.89 279.516 23.4268 283.227 26.5381 286.084L29.5819 282.77C27.4665 280.827 26.39 278.351 26.39 275.147L21.89 275.147ZM26.5381 286.084C29.5897 288.887 33.3153 290.277 37.58 290.277L37.58 285.777C34.378 285.777 31.7569 284.767 29.5819 282.77L26.5381 286.084ZM75.98 338.719L75.6777 340.948L78.23 341.294L78.23 338.719L75.98 338.719ZM68.14 334.399L66.4209 335.85L66.4238 335.854L68.14 334.399ZM68.14 316.559L66.4562 315.066L66.4383 315.086L66.4209 315.107L68.14 316.559ZM75.98 312.319L78.23 312.319L78.23 309.7L75.6407 310.094L75.98 312.319ZM75.98 320.319L76.572 322.489L78.23 322.037L78.23 320.319L75.98 320.319ZM73.26 322.239L75.1321 323.487L75.1321 323.487L73.26 322.239ZM75.98 330.719L78.23 330.719L78.23 328.98L76.5479 328.542L75.98 330.719ZM15.5 345.999L13.25 345.999L13.25 348.249L15.5 348.249L15.5 345.999ZM15.5 335.359L15.5 333.109L13.25 333.109L13.25 335.359L15.5 335.359ZM44.22 335.359L44.22 337.609L51.484 337.609L45.4918 333.503L44.22 335.359ZM15.5 315.679L13.25 315.679L13.25 316.865L14.2282 317.535L15.5 315.679ZM15.5 305.039L15.5 302.789L13.25 302.789L13.25 305.039L15.5 305.039ZM59.82 305.039L62.07 305.039L62.07 302.789L59.82 302.789L59.82 305.039ZM59.82 315.679L59.82 317.929L62.07 317.929L62.07 315.679L59.82 315.679ZM31.1 315.679L31.1 313.429L23.836 313.429L29.8282 317.535L31.1 315.679ZM59.82 335.359L62.07 335.359L62.07 334.173L61.0918 333.503L59.82 335.359ZM59.82 345.999L59.82 348.249L62.07 348.249L62.07 345.999L59.82 345.999ZM76.2823 336.489C73.6942 336.138 71.5819 334.979 69.8562 332.944L66.4238 335.854C68.8581 338.725 71.9724 340.446 75.6777 340.948L76.2823 336.489ZM69.8591 332.947C68.2169 331.002 67.35 328.576 67.35 325.519L62.85 325.519C62.85 329.502 64.0098 332.995 66.4209 335.85L69.8591 332.947ZM67.35 325.519C67.35 322.399 68.2222 319.949 69.8591 318.01L66.4209 315.107C64.0045 317.969 62.85 321.492 62.85 325.519L67.35 325.519ZM69.8238 318.051C71.5492 316.105 73.684 314.945 76.3193 314.543L75.6407 310.094C71.9827 310.652 68.8908 312.32 66.4562 315.066L69.8238 318.051ZM73.73 312.319L73.73 320.319L78.23 320.319L78.23 312.319L73.73 312.319ZM75.388 318.148C73.7214 318.603 72.3465 319.553 71.3879 320.991L75.1321 323.487C75.4535 323.005 75.8919 322.675 76.572 322.489L75.388 318.148ZM71.3879 320.991C70.4856 322.344 70.05 323.877 70.05 325.519L74.55 325.519C74.55 324.707 74.7544 324.053 75.1321 323.487L71.3879 320.991ZM70.05 325.519C70.05 327.245 70.4248 328.884 71.3834 330.239C72.3599 331.618 73.7764 332.469 75.412 332.896L76.5479 328.542C75.7303 328.328 75.3068 327.993 75.0566 327.639C74.7885 327.26 74.55 326.619 74.55 325.519L70.05 325.519ZM73.73 330.719L73.73 338.719L78.23 338.719L78.23 330.719L73.73 330.719ZM17.75 345.999L17.75 335.359L13.25 335.359L13.25 345.999L17.75 345.999ZM15.5 337.609L44.22 337.609L44.22 333.109L15.5 333.109L15.5 337.609ZM45.4918 333.503L16.7718 313.823L14.2282 317.535L42.9482 337.215L45.4918 333.503ZM17.75 315.679L17.75 305.039L13.25 305.039L13.25 315.679L17.75 315.679ZM15.5 307.289L59.82 307.289L59.82 302.789L15.5 302.789L15.5 307.289ZM57.57 305.039L57.57 315.679L62.07 315.679L62.07 305.039L57.57 305.039ZM59.82 313.429L31.1 313.429L31.1 317.929L59.82 317.929L59.82 313.429ZM29.8282 317.535L58.5482 337.215L61.0918 333.503L32.3718 313.823L29.8282 317.535ZM57.57 335.359L57.57 345.999L62.07 345.999L62.07 335.359L57.57 335.359ZM59.82 343.749L15.5 343.749L15.5 348.249L59.82 348.249L59.82 343.749ZM20.62 411.48L22.211 409.889L22.211 409.889L20.62 411.48ZM19.18 378.84L20.8512 380.346L20.8583 380.339L19.18 378.84ZM30.46 372.44L31.0338 374.616L31.0376 374.615L30.46 372.44ZM64.38 377.08L63.0471 378.893L63.0524 378.897L64.38 377.08ZM73.02 389.48L70.8685 390.139L70.8703 390.144L73.02 389.48ZM74.38 399.32L72.13 399.32L72.13 399.341L72.1304 399.362L74.38 399.32ZM74.7 416.28L74.7 418.53L76.9928 418.53L76.9496 416.238L74.7 416.28ZM65.26 416.28L63.0104 416.322L63.0515 418.53L65.26 418.53L65.26 416.28ZM64.94 399.08L62.69 399.08L62.69 399.101L62.6904 399.122L64.94 399.08ZM62.7 388.2L60.6971 389.225L60.7025 389.236L62.7 388.2ZM51.02 380.2L51.3654 377.977L49.6878 382.013L51.02 380.2ZM57.02 387.32L55 388.311L55.0074 388.326L55.0151 388.341L57.02 387.32ZM53.26 412.2L54.851 413.791L54.851 413.791L53.26 412.2ZM46.3 403.96L44.709 402.369L44.6905 402.388L44.6724 402.406L46.3 403.96ZM46.22 385.72L44.6108 387.293L44.6112 387.293L46.22 385.72ZM27.58 385.64L25.989 384.049L25.989 384.049L27.58 385.64ZM27.66 404.04L29.2326 402.431L29.2326 402.431L27.66 404.04ZM37.66 415.87C31.253 415.87 26.1684 413.846 22.211 409.889L19.029 413.071C23.9249 417.967 30.2003 420.37 37.66 420.37L37.66 415.87ZM22.211 409.889C18.3257 406.004 16.31 400.85 16.31 394.2L11.81 394.2C11.81 401.843 14.1676 408.21 19.029 413.071L22.211 409.889ZM16.31 394.2C16.31 388.15 17.9017 383.619 20.8512 380.346L17.5087 377.334C13.6316 381.635 11.81 387.343 11.81 394.2L16.31 394.2ZM20.8583 380.339C23.1646 377.756 26.4989 375.812 31.0338 374.616L29.8862 370.264C24.7144 371.628 20.5287 373.951 17.5016 377.341L20.8583 380.339ZM31.0376 374.615C34.2348 373.765 37.7975 373.33 41.74 373.33L41.74 368.83C37.4692 368.83 33.5118 369.301 29.8824 370.265L31.0376 374.615ZM41.74 373.33C51.1128 373.33 58.1278 375.276 63.0471 378.893L65.7129 375.267C59.7522 370.884 51.6738 368.83 41.74 368.83L41.74 373.33ZM63.0524 378.897C66.7952 381.632 69.4016 385.347 70.8685 390.139L75.1714 388.821C73.4384 383.16 70.2848 378.608 65.7075 375.263L63.0524 378.897ZM70.8703 390.144C71.6997 392.828 72.13 395.879 72.13 399.32L76.63 399.32C76.63 395.508 76.1536 391.999 75.1696 388.816L70.8703 390.144ZM72.1304 399.362L72.4504 416.322L76.9496 416.238L76.6296 399.278L72.1304 399.362ZM74.7 414.03L65.26 414.03L65.26 418.53L74.7 418.53L74.7 414.03ZM67.5096 416.238L67.1896 399.038L62.6904 399.122L63.0104 416.322L67.5096 416.238ZM67.19 399.08C67.19 394.466 66.4042 390.456 64.6974 387.164L60.7025 389.236C61.9824 391.704 62.69 394.947 62.69 399.08L67.19 399.08ZM64.7028 387.175C62.043 381.979 57.4848 378.927 51.3654 377.977L50.6746 382.423C55.5418 383.179 58.7703 385.461 60.6972 389.225L64.7028 387.175ZM49.6878 382.013C52.018 383.725 53.7779 385.82 55 388.311L59.04 386.329C57.4888 383.167 55.2486 380.515 52.3522 378.387L49.6878 382.013ZM55.0151 388.341C56.27 390.805 56.93 393.698 56.93 397.08L61.43 397.08C61.43 393.102 60.65 389.489 59.0248 386.299L55.0151 388.341ZM56.93 397.08C56.93 402.681 55.15 407.128 51.669 410.609L54.851 413.791C59.2633 409.379 61.43 403.745 61.43 397.08L56.93 397.08ZM51.669 410.609C48.2107 414.067 43.6175 415.87 37.66 415.87L37.66 420.37C44.6091 420.37 50.416 418.226 54.851 413.791L51.669 410.609ZM36.94 409.73C41.4017 409.73 45.1677 408.405 47.9275 405.514L44.6724 402.406C42.9523 404.209 40.4782 405.23 36.94 405.23L36.94 409.73ZM47.891 405.551C50.6769 402.765 51.99 399.115 51.99 394.84L47.49 394.84C47.49 398.138 46.5097 400.568 44.709 402.369L47.891 405.551ZM51.99 394.84C51.99 390.634 50.6279 387.01 47.8287 384.147L44.6112 387.293C46.5054 389.23 47.49 391.686 47.49 394.84L51.99 394.84ZM47.8292 384.147C45.0343 381.288 41.3172 379.95 36.94 379.95L36.94 384.45C40.3494 384.45 42.819 385.459 44.6108 387.293L47.8292 384.147ZM36.94 379.95C32.5345 379.95 28.7927 381.245 25.989 384.049L29.171 387.231C30.9539 385.448 33.4521 384.45 36.94 384.45L36.94 379.95ZM25.989 384.049C23.197 386.841 21.89 390.521 21.89 394.84L26.39 394.84C26.39 391.479 27.3763 389.026 29.171 387.231L25.989 384.049ZM21.89 394.84C21.89 399.174 23.2337 402.86 26.0874 405.649L29.2326 402.431C27.3929 400.633 26.39 398.186 26.39 394.84L21.89 394.84ZM26.0874 405.649C28.9256 408.423 32.6198 409.73 36.94 409.73L36.94 405.23C33.5802 405.23 31.0877 404.244 29.2326 402.431L26.0874 405.649ZM32.94 468.732L30.69 468.732L30.69 470.707L32.649 470.963L32.94 468.732ZM32.94 434.012L35.19 434.012L35.19 431.102L32.3738 431.834L32.94 434.012ZM26.54 438.172L24.7566 436.8L24.7482 436.811L24.74 436.822L26.54 438.172ZM25.02 450.812L22.9075 451.586L22.915 451.607L22.923 451.627L25.02 450.812ZM28.3 455.532L30.55 455.532L30.55 454.493L29.759 453.819L28.3 455.532ZM28.3 467.532L27.4194 469.602L30.55 470.934L30.55 467.532L28.3 467.532ZM17.66 458.732L15.752 459.924L15.7564 459.931L17.66 458.732ZM21.9 428.332L23.3541 430.049L23.3543 430.049L21.9 428.332ZM53.1 428.332L51.6655 430.065L51.6696 430.069L53.1 428.332ZM54.46 462.572L52.9282 460.924L52.9182 460.933L52.9083 460.943L54.46 462.572ZM42.38 457.852L40.13 457.852L40.13 460.788L42.9649 460.025L42.38 457.852ZM48.86 453.532L50.6816 454.853L50.6816 454.853L48.86 453.532ZM48.78 438.492L50.6109 437.184L50.6034 437.174L50.5958 437.163L48.78 438.492ZM42.38 433.852L43.1043 431.722L40.13 430.71L40.13 433.852L42.38 433.852ZM37.66 466.722L36.46 466.722L36.46 471.222L37.66 471.222L37.66 466.722ZM36.46 466.722C35.4467 466.722 34.371 466.649 33.231 466.501L32.649 470.963C33.9623 471.134 35.2332 471.222 36.46 471.222L36.46 466.722ZM35.19 468.732L35.19 434.012L30.69 434.012L30.69 468.732L35.19 468.732ZM32.3738 431.834C29.2491 432.647 26.6775 434.303 24.7566 436.8L28.3234 439.544C29.6025 437.881 31.2975 436.764 33.5062 436.189L32.3738 431.834ZM24.74 436.822C22.8297 439.369 21.89 442.33 21.89 445.612L26.39 445.612C26.39 443.241 27.0502 441.242 28.34 439.522L24.74 436.822ZM21.89 445.612C21.89 447.718 22.2216 449.716 22.9075 451.586L27.1325 450.037C26.645 448.708 26.39 447.239 26.39 445.612L21.89 445.612ZM22.923 451.627C23.7924 453.863 25.0925 455.755 26.8409 457.245L29.759 453.819C28.6275 452.855 27.7409 451.601 27.117 449.996L22.923 451.627ZM26.05 455.532L26.05 467.532L30.55 467.532L30.55 455.532L26.05 455.532ZM29.1806 465.461C24.92 463.649 21.7492 461.001 19.5636 457.532L15.7564 459.931C18.4775 464.25 22.3999 467.468 27.4194 469.602L29.1806 465.461ZM19.568 457.539C17.3972 454.066 16.31 450.241 16.31 446.012L11.81 446.012C11.81 451.063 13.1227 455.718 15.752 459.924L19.568 457.539ZM16.31 446.012C16.31 439.257 18.6735 434.013 23.3541 430.049L20.4458 426.615C14.6731 431.504 11.81 438.046 11.81 446.012L16.31 446.012ZM23.3543 430.049C27.4951 426.541 32.1306 424.822 37.34 424.822L37.34 420.322C31.0294 420.322 25.3715 422.443 20.4457 426.615L23.3543 430.049ZM37.34 424.822C42.6679 424.822 47.4172 426.549 51.6655 430.065L54.5345 426.598C49.5027 422.434 43.7454 420.322 37.34 420.322L37.34 424.822ZM51.6696 430.069C56.5604 434.096 59.01 439.391 59.01 446.172L63.51 446.172C63.51 438.126 60.5195 431.527 54.5303 426.595L51.6696 430.069ZM59.01 446.172C59.01 452.326 56.9614 457.175 52.9282 460.924L55.9917 464.22C61.0252 459.542 63.51 453.457 63.51 446.172L59.01 446.172ZM52.9083 460.943C48.8845 464.775 43.8567 466.722 37.66 466.722L37.66 471.222C44.9032 471.222 51.0755 468.902 56.0117 464.201L52.9083 460.943ZM42.9649 460.025C46.1881 459.157 48.8046 457.442 50.6816 454.853L47.0384 452.211C45.822 453.889 44.1186 455.054 41.795 455.679L42.9649 460.025ZM50.6816 454.853C52.5219 452.314 53.43 449.393 53.43 446.172L48.93 446.172C48.93 448.497 48.2914 450.483 47.0384 452.211L50.6816 454.853ZM53.43 446.172C53.43 442.846 52.4966 439.824 50.6109 437.184L46.9491 439.8C48.2634 441.64 48.93 443.738 48.93 446.172L53.43 446.172ZM50.5958 437.163C48.7117 434.588 46.1901 432.771 43.1043 431.722L41.6557 435.982C43.9032 436.746 45.6483 438.022 46.9642 439.821L50.5958 437.163ZM40.13 433.852L40.13 457.852L44.63 457.852L44.63 433.852L40.13 433.852ZM21.34 516.224L22.8159 514.525L22.815 514.525L21.34 516.224ZM15.18 493.344L17.2844 494.14L17.2884 494.129L15.18 493.344ZM20.3 486.464L21.6813 488.24L26.7897 484.267L20.3183 484.214L20.3 486.464ZM0.699978 486.304L-1.55002 486.304L-1.55002 488.535L0.681611 488.554L0.699978 486.304ZM0.699979 475.664L0.699979 473.414L-1.55002 473.414L-1.55002 475.664L0.699979 475.664ZM59.82 475.664L62.07 475.664L62.07 473.414L59.82 473.414L59.82 475.664ZM59.82 485.424L59.82 487.674L62.07 487.674L62.07 485.424L59.82 485.424ZM54.06 485.424L54.06 483.174L46.441 483.174L52.8377 487.313L54.06 485.424ZM59.98 492.784L62.0826 491.983L62.0795 491.975L62.0763 491.967L59.98 492.784ZM54.7 515.584L53.1287 513.973L53.1188 513.983L53.109 513.993L54.7 515.584ZM46.62 508.464L48.0117 510.232L48.0142 510.23L46.62 508.464ZM47.34 489.264L48.8968 487.639L48.896 487.639L47.34 489.264ZM27.74 489.184L26.1847 487.558L26.1667 487.575L26.149 487.593L27.74 489.184ZM27.98 507.744L29.5368 506.119L29.5368 506.119L27.98 507.744ZM37.66 519.814C31.7564 519.814 26.8531 518.034 22.8159 514.525L19.8641 517.922C24.7869 522.2 30.7635 524.314 37.66 524.314L37.66 519.814ZM22.815 514.525C18.4789 510.76 16.31 505.926 16.31 499.824L11.81 499.824C11.81 507.162 14.4943 513.26 19.865 517.923L22.815 514.525ZM16.31 499.824C16.31 497.719 16.6442 495.832 17.2844 494.14L13.0756 492.547C12.2224 494.802 11.81 497.235 11.81 499.824L16.31 499.824ZM17.2884 494.129C18.1489 491.82 19.5945 489.863 21.6813 488.24L18.9186 484.688C16.2054 486.798 14.2377 489.428 13.0715 492.558L17.2884 494.129ZM20.3183 484.214L0.718345 484.054L0.681611 488.554L20.2816 488.714L20.3183 484.214ZM2.94998 486.304L2.94998 475.664L-1.55002 475.664L-1.55002 486.304L2.94998 486.304ZM0.699979 477.914L59.82 477.914L59.82 473.414L0.699979 473.414L0.699979 477.914ZM57.57 475.664L57.57 485.424L62.07 485.424L62.07 475.664L57.57 475.664ZM59.82 483.174L54.06 483.174L54.06 487.674L59.82 487.674L59.82 483.174ZM52.8377 487.313C55.1434 488.805 56.8208 490.875 57.8836 493.601L62.0763 491.967C60.6858 488.4 58.4165 485.563 55.2823 483.535L52.8377 487.313ZM57.8774 493.585C58.631 495.563 59.01 497.638 59.01 499.824L63.51 499.824C63.51 497.103 63.0357 494.485 62.0826 491.983L57.8774 493.585ZM59.01 499.824C59.01 505.472 57.0578 510.14 53.1287 513.973L56.2712 517.194C61.0889 512.494 63.51 506.656 63.51 499.824L59.01 499.824ZM53.109 513.993C49.2758 517.826 44.2018 519.814 37.66 519.814L37.66 524.314C45.1982 524.314 51.4841 521.982 56.291 517.175L53.109 513.993ZM37.74 513.674C41.6204 513.674 45.0797 512.54 48.0117 510.232L45.2282 506.696C43.1469 508.334 40.6862 509.174 37.74 509.174L37.74 513.674ZM48.0142 510.23C51.6312 507.374 53.43 503.451 53.43 498.704L48.93 498.704C48.93 502.17 47.6888 504.753 45.2258 506.698L48.0142 510.23ZM53.43 498.704C53.43 494.307 51.9388 490.555 48.8968 487.639L45.7832 490.888C47.8611 492.88 48.93 495.421 48.93 498.704L53.43 498.704ZM48.896 487.639C45.9123 484.782 42.1004 483.414 37.66 483.414L37.66 487.914C41.1128 487.914 43.7543 488.946 45.7839 490.889L48.896 487.639ZM37.66 483.414C33.0584 483.414 29.1468 484.724 26.1847 487.558L29.2952 490.81C31.2398 488.95 33.9415 487.914 37.66 487.914L37.66 483.414ZM26.149 487.593C23.2894 490.452 21.89 494.082 21.89 498.304L26.39 498.304C26.39 495.165 27.3906 492.715 29.331 490.775L26.149 487.593ZM21.89 498.304C21.89 502.701 23.3811 506.453 26.4232 509.368L29.5368 506.119C27.4588 504.128 26.39 501.587 26.39 498.304L21.89 498.304ZM26.4232 509.368C29.4509 512.27 33.2845 513.674 37.74 513.674L37.74 509.174C34.3021 509.174 31.6291 508.124 29.5368 506.119L26.4232 509.368ZM32.94 572.716L30.69 572.716L30.69 574.692L32.649 574.947L32.94 572.716ZM32.94 537.996L35.19 537.996L35.19 535.086L32.3738 535.819L32.94 537.996ZM26.54 542.156L24.7566 540.784L24.7482 540.795L24.74 540.806L26.54 542.156ZM25.02 554.796L22.9075 555.571L22.915 555.591L22.923 555.612L25.02 554.796ZM28.3 559.516L30.55 559.516L30.55 558.477L29.759 557.803L28.3 559.516ZM28.3 571.516L27.4194 573.587L30.55 574.918L30.55 571.516L28.3 571.516ZM17.66 562.716L15.752 563.909L15.7564 563.916L17.66 562.716ZM21.9 532.316L23.3541 534.033L23.3543 534.033L21.9 532.316ZM53.1 532.316L51.6654 534.05L51.6696 534.053L53.1 532.316ZM54.46 566.556L52.9282 564.908L52.9182 564.917L52.9083 564.927L54.46 566.556ZM42.38 561.836L40.13 561.836L40.13 564.772L42.9649 564.009L42.38 561.836ZM48.86 557.516L50.6816 558.837L50.6816 558.837L48.86 557.516ZM48.78 542.476L50.6109 541.168L50.6034 541.158L50.5958 541.148L48.78 542.476ZM42.38 537.836L43.1043 535.706L40.13 534.695L40.13 537.836L42.38 537.836ZM37.66 570.706L36.46 570.706L36.46 575.206L37.66 575.206L37.66 570.706ZM36.46 570.706C35.4467 570.706 34.371 570.634 33.231 570.485L32.649 574.947C33.9623 575.119 35.2332 575.206 36.46 575.206L36.46 570.706ZM35.19 572.716L35.19 537.996L30.69 537.996L30.69 572.716L35.19 572.716ZM32.3738 535.819C29.2491 536.631 26.6775 538.287 24.7566 540.784L28.3234 543.528C29.6025 541.865 31.2975 540.748 33.5062 540.174L32.3738 535.819ZM24.74 540.806C22.8297 543.353 21.89 546.314 21.89 549.596L26.39 549.596C26.39 547.225 27.0502 545.226 28.34 543.506L24.74 540.806ZM21.89 549.596C21.89 551.702 22.2216 553.7 22.9075 555.571L27.1324 554.022C26.645 552.692 26.39 551.224 26.39 549.596L21.89 549.596ZM22.923 555.612C23.7924 557.847 25.0925 559.74 26.8409 561.229L29.759 557.803C28.6275 556.84 27.7409 555.585 27.117 553.981L22.923 555.612ZM26.05 559.516L26.05 571.516L30.55 571.516L30.55 559.516L26.05 559.516ZM29.1805 569.446C24.92 567.634 21.7492 564.985 19.5636 561.517L15.7564 563.916C18.4774 568.234 22.3999 571.452 27.4194 573.587L29.1805 569.446ZM19.568 561.524C17.3972 558.051 16.31 554.226 16.31 549.996L11.81 549.996C11.81 555.047 13.1227 559.702 15.752 563.909L19.568 561.524ZM16.31 549.996C16.31 543.242 18.6735 537.997 23.3541 534.033L20.4458 530.599C14.6731 535.488 11.81 542.031 11.81 549.996L16.31 549.996ZM23.3543 534.033C27.4951 530.526 32.1305 528.806 37.34 528.806L37.34 524.306C31.0294 524.306 25.3715 526.427 20.4457 530.599L23.3543 534.033ZM37.34 528.806C42.6679 528.806 47.4172 530.534 51.6655 534.05L54.5345 530.583C49.5027 526.419 43.7454 524.306 37.34 524.306L37.34 528.806ZM51.6696 534.053C56.5604 538.081 59.01 543.375 59.01 550.156L63.51 550.156C63.51 542.111 60.5195 535.512 54.5303 530.579L51.6696 534.053ZM59.01 550.156C59.01 556.311 56.9614 561.16 52.9282 564.908L55.9917 568.204C61.0252 563.526 63.51 557.442 63.51 550.156L59.01 550.156ZM52.9083 564.927C48.8845 568.759 43.8567 570.706 37.66 570.706L37.66 575.206C44.9032 575.206 51.0755 572.887 56.0117 568.186L52.9083 564.927ZM42.9649 564.009C46.188 563.141 48.8046 561.426 50.6816 558.837L47.0384 556.196C45.822 557.873 44.1186 559.038 41.795 559.664L42.9649 564.009ZM50.6816 558.837C52.5219 556.299 53.43 553.377 53.43 550.156L48.93 550.156C48.93 552.482 48.2914 554.467 47.0384 556.196L50.6816 558.837ZM53.43 550.156C53.43 546.83 52.4966 543.808 50.6109 541.168L46.9491 543.784C48.2634 545.624 48.93 547.722 48.93 550.156L53.43 550.156ZM50.5958 541.148C48.7117 538.573 46.1901 536.755 43.1043 535.706L41.6557 539.966C43.9032 540.731 45.6483 542.007 46.9642 543.805L50.5958 541.148ZM40.13 537.836L40.13 561.836L44.63 561.836L44.63 537.836L40.13 537.836ZM50.38 604.768L48.13 604.768L48.13 607.018L50.38 607.018L50.38 604.768ZM50.38 590.288L52.63 590.288L52.63 588.038L50.38 588.038L50.38 590.288ZM15.5 590.288L13.25 590.288L13.25 592.538L15.5 592.538L15.5 590.288ZM15.5 579.648L15.5 577.398L13.25 577.398L13.25 579.648L15.5 579.648ZM59.82 579.648L62.07 579.648L62.07 577.398L59.82 577.398L59.82 579.648ZM59.82 604.768L59.82 607.018L62.07 607.018L62.07 604.768L59.82 604.768ZM52.63 604.768L52.63 590.288L48.13 590.288L48.13 604.768L52.63 604.768ZM50.38 588.038L15.5 588.038L15.5 592.538L50.38 592.538L50.38 588.038ZM17.75 590.288L17.75 579.648L13.25 579.648L13.25 590.288L17.75 590.288ZM15.5 581.898L59.82 581.898L59.82 577.398L15.5 577.398L15.5 581.898ZM57.57 579.648L57.57 604.768L62.07 604.768L62.07 579.648L57.57 579.648ZM59.82 602.518L50.38 602.518L50.38 607.018L59.82 607.018L59.82 602.518Z" fill="white"/>
</svg>
