<svg width="22" height="22" viewBox="0 0 22 22" fill="none" xmlns="http://www.w3.org/2000/svg">
<path d="M16.9231 13.3054C16.4916 12.8561 15.9712 12.6159 15.4196 12.6159C14.8724 12.6159 14.3476 12.8517 13.8983 13.3009L12.4927 14.7021C12.377 14.6399 12.2614 14.582 12.1502 14.5242C11.99 14.4441 11.8388 14.3685 11.7098 14.2884C10.3931 13.4522 9.19655 12.3624 8.04892 10.9523C7.49289 10.2495 7.11924 9.65787 6.8479 9.05737C7.21266 8.72375 7.55072 8.37679 7.87989 8.04318C8.00444 7.91863 8.12898 7.78963 8.25353 7.66508C9.18766 6.73096 9.18766 5.52105 8.25353 4.58693L7.03918 3.37258C6.90128 3.23468 6.75894 3.09234 6.6255 2.95C6.3586 2.67421 6.07837 2.38953 5.78924 2.12263C5.35776 1.69561 4.84177 1.46875 4.29909 1.46875C3.75641 1.46875 3.23152 1.69561 2.7867 2.12263C2.78226 2.12708 2.78226 2.12708 2.77781 2.13153L1.26542 3.65726C0.696053 4.22663 0.371335 4.92055 0.300164 5.72567C0.193407 7.02454 0.575952 8.23445 0.869533 9.02623C1.59014 10.9701 2.6666 12.7716 4.2724 14.7021C6.22071 17.0285 8.56491 18.8656 11.2427 20.1601C12.2658 20.6449 13.6314 21.2187 15.1571 21.3166C15.2505 21.321 15.3484 21.3255 15.4374 21.3255C16.4649 21.3255 17.3279 20.9563 18.004 20.2223C18.0084 20.2134 18.0173 20.209 18.0218 20.2001C18.2531 19.9199 18.52 19.6663 18.8002 19.395C18.9915 19.2126 19.1872 19.0213 19.3785 18.8212C19.8188 18.363 20.0501 17.8292 20.0501 17.2821C20.0501 16.7305 19.8144 16.2012 19.3651 15.7563L16.9231 13.3054ZM18.5155 17.9893C18.5111 17.9893 18.5111 17.9938 18.5155 17.9893C18.342 18.1762 18.1641 18.3452 17.9728 18.532C17.6837 18.8078 17.3901 19.0969 17.1143 19.4217C16.6651 19.9021 16.1357 20.1289 15.4418 20.1289C15.3751 20.1289 15.3039 20.1289 15.2372 20.1245C13.9161 20.04 12.6884 19.524 11.7676 19.0836C9.24993 17.8648 7.03918 16.1344 5.20207 13.9415C3.68524 12.1133 2.67105 10.423 1.99937 8.6081C1.58569 7.5005 1.43445 6.63755 1.50118 5.82353C1.54566 5.30309 1.74583 4.87162 2.11503 4.50242L3.63186 2.98558C3.84982 2.78097 4.08113 2.66976 4.30799 2.66976C4.58822 2.66976 4.81508 2.83879 4.95742 2.98114C4.96187 2.98558 4.96632 2.99003 4.97077 2.99448C5.24211 3.24803 5.5001 3.51047 5.77144 3.79071C5.90934 3.93305 6.05168 4.07539 6.19402 4.22218L7.40838 5.43654C7.87989 5.90805 7.87989 6.34397 7.40838 6.81548C7.27938 6.94448 7.15483 7.07347 7.02583 7.19802C6.65218 7.58057 6.29633 7.93642 5.90934 8.28338C5.90044 8.29228 5.89154 8.29673 5.8871 8.30562C5.50455 8.68817 5.57572 9.06182 5.65579 9.31536C5.66024 9.32871 5.66469 9.34205 5.66913 9.3554C5.98496 10.1205 6.42977 10.8411 7.1059 11.6996L7.11035 11.704C8.33805 13.2164 9.63247 14.3952 11.0603 15.2982C11.2427 15.4138 11.4295 15.5072 11.6075 15.5962C11.7676 15.6763 11.9188 15.7519 12.0478 15.832C12.0656 15.8409 12.0834 15.8542 12.1012 15.8631C12.2525 15.9387 12.3948 15.9743 12.5416 15.9743C12.9108 15.9743 13.1421 15.743 13.2177 15.6674L14.739 14.1461C14.8902 13.9949 15.1304 13.8125 15.4107 13.8125C15.6865 13.8125 15.9133 13.986 16.0512 14.1372C16.0557 14.1417 16.0557 14.1417 16.0601 14.1461L18.5111 16.5971C18.9692 17.0508 18.9692 17.5178 18.5155 17.9893Z" fill="#FAA928"/>
<path d="M11.6564 5.26304C12.8218 5.45876 13.8805 6.01033 14.7257 6.85549C15.5708 7.70065 16.1179 8.75932 16.3181 9.92474C16.367 10.2183 16.6206 10.4229 16.9097 10.4229C16.9453 10.4229 16.9764 10.4185 17.012 10.414C17.3412 10.3607 17.5592 10.0493 17.5058 9.72013C17.2656 8.31005 16.5983 7.02452 15.5797 6.00588C14.5611 4.98725 13.2755 4.32002 11.8655 4.07982C11.5363 4.02644 11.2294 4.2444 11.1715 4.56912C11.1137 4.89384 11.3272 5.20966 11.6564 5.26304Z" fill="#FAA928"/>
<path d="M21.3179 9.54698C20.922 7.22503 19.8277 5.11213 18.1463 3.43072C16.4649 1.7493 14.352 0.655044 12.03 0.259155C11.7053 0.201329 11.3984 0.423738 11.3406 0.748456C11.2872 1.07762 11.5051 1.38455 11.8343 1.44237C13.9072 1.79378 15.7976 2.77683 17.3011 4.27587C18.8046 5.77936 19.7832 7.66984 20.1346 9.7427C20.1836 10.0363 20.4371 10.2409 20.7262 10.2409C20.7618 10.2409 20.793 10.2365 20.8286 10.232C21.1533 10.1831 21.3757 9.8717 21.3179 9.54698Z" fill="#FAA928"/>
</svg>
