<svg width="20" height="19" viewBox="0 0 20 19" fill="none" xmlns="http://www.w3.org/2000/svg">
<path d="M16.9685 7.94665C16.9916 5.27658 14.6795 2.82885 11.8145 2.49036C11.7575 2.48371 11.6955 2.47361 11.6298 2.46288C11.4879 2.43976 11.3412 2.41602 11.1933 2.41602C10.6061 2.41602 10.4491 2.82171 10.4078 3.06369C10.3676 3.29894 10.4059 3.49649 10.5215 3.65115C10.716 3.91121 11.0581 3.95738 11.3329 3.9944C11.4135 4.00535 11.4895 4.01552 11.5531 4.02958C14.1272 4.59532 14.994 5.48475 15.4176 7.99507C15.4279 8.0564 15.4326 8.132 15.4375 8.21216C15.456 8.51225 15.4945 9.13654 16.1769 9.13654H16.177C16.2338 9.13654 16.2948 9.13174 16.3584 9.12219C16.9939 9.02721 16.9739 8.45654 16.9644 8.18234C16.9617 8.10511 16.9591 8.03206 16.9658 7.98349C16.9675 7.97125 16.9684 7.95893 16.9685 7.94665Z" fill="white"/>
<path d="M11.0265 1.51084C11.1028 1.51624 11.175 1.52142 11.2351 1.53048C15.462 2.16987 17.4059 4.13967 17.9446 8.32972C17.9537 8.40096 17.9552 8.48781 17.9567 8.5798C17.962 8.90715 17.9731 9.58818 18.7167 9.60228L18.7398 9.6025C18.973 9.6025 19.1585 9.53333 19.2912 9.39677C19.5226 9.15863 19.5065 8.80487 19.4934 8.52054C19.4903 8.45078 19.4872 8.38509 19.488 8.32757C19.5417 4.04224 15.7704 0.156314 11.4174 0.0118364C11.3994 0.0112446 11.3822 0.0122063 11.3648 0.0146106C11.3562 0.0158312 11.3404 0.0173847 11.3132 0.0173847C11.2698 0.0173847 11.2164 0.0136858 11.1598 0.00991298C11.0913 0.00528939 11.0137 0 10.935 0C10.2418 0 10.11 0.484626 10.0931 0.773509C10.0543 1.44119 10.7109 1.48817 11.0265 1.51084Z" fill="white"/>
<path d="M17.7407 13.746C17.6508 13.6785 17.5579 13.6086 17.4709 13.5396C17.0094 13.1743 16.5184 12.8376 16.0436 12.512C15.945 12.4445 15.8465 12.3769 15.7483 12.3091C15.14 11.8889 14.5932 11.6847 14.0766 11.6847C13.3807 11.6847 12.774 12.0629 12.2733 12.8086C12.0514 13.1392 11.7823 13.2999 11.4506 13.2999C11.2545 13.2999 11.0316 13.2448 10.7883 13.1362C8.82496 12.2605 7.42302 10.9179 6.62137 9.14563C6.23383 8.28904 6.35947 7.72914 7.04151 7.27344C7.42882 7.01489 8.14973 6.53356 8.09866 5.61183C8.04082 4.56513 5.69275 1.41564 4.7034 1.05796C4.28453 0.906457 3.84442 0.905051 3.39296 1.05445C2.25559 1.43051 1.43941 2.09095 1.03244 2.96422C0.639146 3.80804 0.656896 4.79882 1.08381 5.82948C2.3179 8.80936 4.05295 11.4075 6.24098 13.5514C8.38267 15.6501 11.015 17.3693 14.0647 18.6609C14.3396 18.7772 14.6279 18.8407 14.8385 18.887C14.9102 18.9029 14.9722 18.9164 15.0173 18.9286C15.0421 18.9352 15.0677 18.9388 15.0934 18.939L15.1175 18.9391C15.1176 18.9391 15.1175 18.9391 15.1176 18.9391C16.552 18.9391 18.2743 17.6499 18.8033 16.1802C19.2667 14.8932 18.4206 14.2571 17.7407 13.746Z" fill="white"/>
<path d="M11.661 4.91409C11.4155 4.92019 10.9044 4.93265 10.725 5.44455C10.6411 5.68375 10.6512 5.89144 10.7549 6.06185C10.9072 6.31188 11.1989 6.38851 11.4642 6.43055C12.4264 6.5824 12.9206 7.10562 13.0194 8.07705C13.0653 8.53 13.3755 8.8463 13.7737 8.8463H13.7738C13.8032 8.8463 13.8333 8.8446 13.8633 8.84101C14.3422 8.78499 14.5745 8.43891 14.5535 7.81256C14.5611 7.15883 14.2132 6.41669 13.6215 5.82554C13.0277 5.23257 12.312 4.89863 11.661 4.91409Z" fill="white"/>
</svg>
