
<svg width="36" height="36" viewBox="0 0 36 36" fill="none" xmlns="http://www.w3.org/2000/svg">
<path d="M18.3001 0C8.53994 0 0.600174 7.9398 0.600174 17.7C0.600174 20.7876 1.40777 23.8212 2.93776 26.49L0.030777 35.2104C-0.0388227 35.4198 0.0115771 35.6496 0.162176 35.8104C0.277376 35.9334 0.436975 36 0.600174 36C0.651174 36 0.702174 35.9934 0.752573 35.9802L10.2727 33.4752C12.7459 34.7352 15.5161 35.4 18.3001 35.4C28.0602 35.4 36 27.4602 36 17.7C36 7.9398 28.0602 0 18.3001 0ZM29.3448 25.737L28.29 26.7924C26.958 28.1244 25.4719 28.8 23.8741 28.8C21.7201 28.8 19.3975 27.57 16.9723 25.1442L10.8559 19.0284C8.94313 17.1156 7.76774 15.2574 7.36214 13.5048C6.87014 11.3766 7.49114 9.4272 9.20833 7.7106L10.2637 6.6552C10.9423 5.9766 12.0397 5.8098 12.8899 6.2598C14.4871 7.1052 16.1419 9.8748 16.3255 10.188C16.6567 10.7682 16.7581 11.3682 16.6153 11.8824C16.5061 12.2754 16.2601 12.5958 15.9025 12.8136C15.4177 13.2192 14.8495 13.7244 14.7493 13.8528C14.1397 14.7522 14.2093 15.4428 14.9947 16.2288L19.7719 21.006C20.5639 21.7986 21.2425 21.864 22.1563 21.2448C22.2769 21.1506 22.7815 20.5824 23.1871 20.0976C23.4901 19.5966 23.9863 19.3224 24.5899 19.3224C24.9853 19.3224 25.4058 19.4424 25.806 19.6704C26.1252 19.8582 28.8954 21.513 29.7402 23.1096C30.2022 23.9832 30.0438 25.038 29.3448 25.737Z" fill="white"/>
</svg>
